<mxfile host="app.diagrams.net" agent="Mozilla/5.0 (Windows NT 10.0; Win64; x64) AppleWebKit/537.36 (KHTML, like Gecko) Chrome/131.0.0.0 Safari/537.36" version="24.9.0">
  <diagram name="Page-1" id="XUwWF2s2ND4r8KXp4mdf">
    <mxGraphModel dx="3360" dy="1486" grid="1" gridSize="10" guides="1" tooltips="1" connect="1" arrows="1" fold="1" page="1" pageScale="1" pageWidth="900" pageHeight="1600" math="0" shadow="0">
      <root>
        <mxCell id="0" />
        <mxCell id="1" parent="0" />
        <mxCell id="uLa3YSmyuf6-ixNmp2Hf-1" value="Instructor want to upload assignment (Question and Answer) " style="html=1;overflow=block;blockSpacing=1;whiteSpace=wrap;fontSize=20;spacing=9;verticalAlign=middle;strokeColor=#000000;rounded=1;absoluteArcSize=1;arcSize=9;fillColor=default;strokeWidth=NaN;lucidId=g~-n_72lhCFz;" parent="1" vertex="1">
          <mxGeometry x="366.1712439418416" y="316.25" width="318.5783521809369" height="117.18749999999999" as="geometry" />
        </mxCell>
        <mxCell id="uLa3YSmyuf6-ixNmp2Hf-2" value="" style="html=1;overflow=block;blockSpacing=1;whiteSpace=wrap;shape=image;fontSize=13;spacing=3.8;strokeColor=none;strokeOpacity=100;strokeWidth=0;image=https://images.lucid.app/images/cf29f117-7d04-4672-97fa-d16898096b3e/content;imageAspect=0;lucidId=vh_nGRNSJd6I;" parent="1" vertex="1">
          <mxGeometry x="459.870759289176" y="160" width="131.17932148626815" height="136.71875" as="geometry" />
        </mxCell>
        <mxCell id="uLa3YSmyuf6-ixNmp2Hf-3" value="Instructor visit the gradepilot wepsite and register an account" style="html=1;overflow=block;blockSpacing=1;whiteSpace=wrap;fontSize=20;spacing=9;verticalAlign=middle;strokeColor=#000000;rounded=1;absoluteArcSize=1;arcSize=9;fillColor=default;strokeWidth=NaN;lucidId=4i_nZ2Z2NjIl;" parent="1" vertex="1">
          <mxGeometry x="938.3629509962303" y="316.25" width="318.5783521809369" height="117.18749999999999" as="geometry" />
        </mxCell>
        <mxCell id="uLa3YSmyuf6-ixNmp2Hf-4" value="Instructor upload assignment (Question and Answer)  in template" style="html=1;overflow=block;blockSpacing=1;whiteSpace=wrap;fontSize=20;spacing=9;verticalAlign=middle;strokeColor=#000000;rounded=1;absoluteArcSize=1;arcSize=9;fillColor=default;strokeWidth=NaN;lucidId=Lo_nSm~tk-nF;" parent="1" vertex="1">
          <mxGeometry x="1509.305331179321" y="316.25" width="318.5783521809369" height="117.18749999999999" as="geometry" />
        </mxCell>
        <mxCell id="uLa3YSmyuf6-ixNmp2Hf-5" value="" style="html=1;jettySize=18;whiteSpace=wrap;fontSize=13;strokeOpacity=100;strokeWidth=3;rounded=1;arcSize=12;edgeStyle=orthogonalEdgeStyle;startArrow=none;endArrow=block;endFill=1;lucidId=ld_nqYoT4GKa;" parent="1" edge="1">
          <mxGeometry width="100" height="100" relative="1" as="geometry">
            <Array as="points" />
            <mxPoint x="590" y="258" as="sourcePoint" />
            <mxPoint x="1010" y="258" as="targetPoint" />
          </mxGeometry>
        </mxCell>
        <mxCell id="uLa3YSmyuf6-ixNmp2Hf-6" value="" style="html=1;overflow=block;blockSpacing=1;whiteSpace=wrap;shape=image;fontSize=13;spacing=0;strokeColor=none;strokeOpacity=100;rounded=1;absoluteArcSize=1;arcSize=9;strokeWidth=0;image=https://images.lucid.app/images/8611eeb5-6785-4f5e-a9c1-1b1d1205eb57/content;imageAspect=0;lucidId=Ki_ng3.P~-tq;" parent="1" vertex="1">
          <mxGeometry x="1032.0624663435647" y="160" width="131.17932148626815" height="136.71875" as="geometry" />
        </mxCell>
        <mxCell id="uLa3YSmyuf6-ixNmp2Hf-7" value="" style="html=1;overflow=block;blockSpacing=1;whiteSpace=wrap;shape=image;fontSize=13;spacing=0;strokeColor=none;strokeOpacity=100;rounded=1;absoluteArcSize=1;arcSize=9;strokeWidth=0;image=https://images.lucid.app/images/6fe8032e-52cd-45f6-b373-1c3d6a6fee62/content;imageAspect=0;lucidId=eB_nZKGIF~u5;" parent="1" vertex="1">
          <mxGeometry x="2240.1615508885293" y="170.41666666666666" width="124.9326871297792" height="130.20833333333334" as="geometry" />
        </mxCell>
        <mxCell id="uLa3YSmyuf6-ixNmp2Hf-8" value="System generate unit-test for each method in the code" style="html=1;overflow=block;blockSpacing=1;whiteSpace=wrap;fontSize=20;spacing=9;verticalAlign=middle;strokeColor=#000000;rounded=1;absoluteArcSize=1;arcSize=9;fillColor=default;strokeWidth=NaN;lucidId=uB_nMYnb3KVG;" parent="1" vertex="1">
          <mxGeometry x="2143.9633817985996" y="316.25" width="318.5783521809369" height="117.18749999999999" as="geometry" />
        </mxCell>
        <mxCell id="uLa3YSmyuf6-ixNmp2Hf-9" value="" style="html=1;overflow=block;blockSpacing=1;whiteSpace=wrap;shape=image;fontSize=13;spacing=3.8;strokeColor=none;strokeOpacity=100;strokeWidth=0;image=https://images.lucid.app/images/15e8bce5-4d7f-41ec-a2ed-1eda033fa88e/content;imageAspect=0;lucidId=kK_nUjFdbjG9;" parent="1" vertex="1">
          <mxGeometry x="2087.461647819063" y="589.6875" width="137.4259558427571" height="143.22916666666669" as="geometry" />
        </mxCell>
        <mxCell id="uLa3YSmyuf6-ixNmp2Hf-10" value="Instructor has the option edit the grade scale or accept it" style="html=1;overflow=block;blockSpacing=1;whiteSpace=wrap;fontSize=20;spacing=9;verticalAlign=middle;strokeColor=#000000;rounded=1;absoluteArcSize=1;arcSize=9;fillColor=default;strokeWidth=NaN;lucidId=rK_nJaGioGZU;" parent="1" vertex="1">
          <mxGeometry x="2010.0033817985995" y="765.4687499999999" width="318.5783521809369" height="117.18749999999999" as="geometry" />
        </mxCell>
        <mxCell id="uLa3YSmyuf6-ixNmp2Hf-11" value="&lt;div style=&quot;display: flex; justify-content: center; text-align: center; align-items: baseline; font-size: 20px; line-height: 1.25; margin-top: -2px;&quot;&gt;&lt;span style=&quot;font-size: 20px;&quot;&gt;&lt;span style=&quot;font-size: 20px;&quot;&gt;Instructor make the task and then &lt;/span&gt;&lt;span style=&quot;font-size: 20px; color: rgb(0, 0, 0);&quot;&gt;assign&lt;/span&gt;&lt;span style=&quot;font-size: 20px; color: rgb(0, 0, 0);&quot;&gt; &lt;/span&gt;&lt;span style=&quot;font-size: 20px;&quot;&gt;it to the students&lt;/span&gt;&lt;/span&gt;&lt;/div&gt;" style="html=1;overflow=block;blockSpacing=1;whiteSpace=wrap;fontSize=20;spacing=9;verticalAlign=middle;strokeColor=#000000;rounded=1;absoluteArcSize=1;arcSize=9;fillColor=default;strokeWidth=NaN;lucidId=fM_n-XyTZdL4;" parent="1" vertex="1">
          <mxGeometry x="1209.995331179321" y="765.4687499999999" width="318.5783521809369" height="117.18749999999999" as="geometry" />
        </mxCell>
        <mxCell id="uLa3YSmyuf6-ixNmp2Hf-12" value="" style="html=1;overflow=block;blockSpacing=1;whiteSpace=wrap;shape=image;fontSize=13;spacing=3.8;strokeColor=none;strokeOpacity=100;strokeWidth=0;image=https://images.lucid.app/images/f3780656-6d7f-45b9-bf1d-8745f2e24056/content;imageAspect=0;lucidId=-R_nAK9wsuUp;" parent="1" vertex="1">
          <mxGeometry x="1609.2514808831445" y="184.73958333333334" width="119.93537964458802" height="124.99999999999999" as="geometry" />
        </mxCell>
        <mxCell id="uLa3YSmyuf6-ixNmp2Hf-13" value="" style="html=1;overflow=block;blockSpacing=1;whiteSpace=wrap;shape=image;fontSize=13;spacing=0;strokeColor=none;strokeOpacity=100;rounded=1;absoluteArcSize=1;arcSize=9;strokeWidth=0;image=https://images.lucid.app/images/3f09c404-20ad-480c-8180-72ea19dbebd9/content;imageAspect=0;lucidId=iT_nMNf7s1cx;" parent="1" vertex="1">
          <mxGeometry x="1291.2015778136777" y="589.6875" width="137.4259558427571" height="143.22916666666669" as="geometry" />
        </mxCell>
        <mxCell id="uLa3YSmyuf6-ixNmp2Hf-15" value="" style="html=1;overflow=block;blockSpacing=1;whiteSpace=wrap;shape=image;fontSize=13;spacing=0;strokeColor=none;strokeOpacity=100;rounded=1;absoluteArcSize=1;arcSize=9;strokeWidth=0;image=https://images.lucid.app/images/2850595e-226b-4c26-bd48-080ef7069bdb/content;imageAspect=0;lucidId=uW_nDHdMSMSp;" parent="1" vertex="1">
          <mxGeometry x="2068.700446957458" y="1081.4875000000002" width="129.92999461497035" height="135.41666666666666" as="geometry" />
        </mxCell>
        <mxCell id="uLa3YSmyuf6-ixNmp2Hf-16" value="students get notification on email/phone when grades get published" style="html=1;overflow=block;blockSpacing=1;whiteSpace=wrap;fontSize=20;spacing=9;verticalAlign=middle;strokeColor=#000000;rounded=1;absoluteArcSize=1;arcSize=9;fillColor=default;strokeWidth=NaN;lucidId=GW_ndmxsG6gZ;" parent="1" vertex="1">
          <mxGeometry x="1979.9982390953146" y="1245.77875" width="318.5783521809369" height="117.18749999999999" as="geometry" />
        </mxCell>
        <mxCell id="uLa3YSmyuf6-ixNmp2Hf-17" value="students upload their code and get feedback" style="html=1;overflow=block;blockSpacing=1;whiteSpace=wrap;fontSize=20;spacing=9;verticalAlign=middle;strokeColor=#000000;rounded=1;absoluteArcSize=1;arcSize=9;fillColor=default;strokeWidth=NaN;lucidId=U0_nzfAXelq3;" parent="1" vertex="1">
          <mxGeometry x="421.8659558427572" y="755.7787499999998" width="318.5783521809369" height="110.67708333333333" as="geometry" />
        </mxCell>
        <mxCell id="uLa3YSmyuf6-ixNmp2Hf-18" value="" style="html=1;overflow=block;blockSpacing=1;whiteSpace=wrap;shape=image;fontSize=13;spacing=0;strokeColor=none;strokeOpacity=100;rounded=1;absoluteArcSize=1;arcSize=9;strokeWidth=0;image=https://images.lucid.app/images/a20d1592-d6b2-4e59-8706-604a2c6ea2d1/content;imageAspect=0;lucidId=d4_nnMkV1p_3;" parent="1" vertex="1">
          <mxGeometry x="515.5654711900917" y="579.9975" width="149.91922455573504" height="156.24999999999997" as="geometry" />
        </mxCell>
        <mxCell id="uLa3YSmyuf6-ixNmp2Hf-19" value="System grade the students&#39; assignment after the due date passed" style="html=1;overflow=block;blockSpacing=1;whiteSpace=wrap;fontSize=20;spacing=9;verticalAlign=middle;strokeColor=#000000;rounded=1;absoluteArcSize=1;arcSize=9;fillColor=default;strokeWidth=NaN;lucidId=p4_nxWOM-g6~;" parent="1" vertex="1">
          <mxGeometry x="1196.06900915455" y="1254.3425" width="318.5783521809369" height="117.18749999999999" as="geometry" />
        </mxCell>
        <mxCell id="uLa3YSmyuf6-ixNmp2Hf-20" value="" style="html=1;overflow=block;blockSpacing=1;whiteSpace=wrap;shape=image;fontSize=13;spacing=0;strokeColor=none;strokeOpacity=100;rounded=1;absoluteArcSize=1;arcSize=9;strokeWidth=0;image=https://images.lucid.app/images/3c8733b0-6be3-481e-991e-d37541d2ebf4/content;imageAspect=0;lucidId=l7_niEyFFGEM;" parent="1" vertex="1">
          <mxGeometry x="1269.7832364028" y="1060" width="171.1577813677975" height="178.38541666666666" as="geometry" />
        </mxCell>
        <mxCell id="uLa3YSmyuf6-ixNmp2Hf-23" value="" style="html=1;jettySize=18;whiteSpace=wrap;fontSize=13;strokeOpacity=100;strokeWidth=3;rounded=1;arcSize=12;edgeStyle=orthogonalEdgeStyle;startArrow=none;endArrow=block;endFill=1;lucidId=1-_nRsYmtrjV;" parent="1" edge="1">
          <mxGeometry width="100" height="100" relative="1" as="geometry">
            <Array as="points" />
            <mxPoint x="1180" y="253" as="sourcePoint" />
            <mxPoint x="1600" y="253" as="targetPoint" />
          </mxGeometry>
        </mxCell>
        <mxCell id="uLa3YSmyuf6-ixNmp2Hf-24" value="" style="html=1;jettySize=18;whiteSpace=wrap;fontSize=13;strokeOpacity=100;strokeWidth=3;rounded=1;arcSize=12;startArrow=none;endArrow=block;endFill=1;lucidId=G__nIQE1pVD~;" parent="1" edge="1">
          <mxGeometry width="100" height="100" relative="1" as="geometry">
            <mxPoint x="1740" y="250" as="sourcePoint" />
            <mxPoint x="2230" y="250" as="targetPoint" />
          </mxGeometry>
        </mxCell>
        <mxCell id="uLa3YSmyuf6-ixNmp2Hf-25" value="" style="html=1;jettySize=18;whiteSpace=wrap;fontSize=13;strokeOpacity=100;strokeWidth=3;rounded=1;arcSize=12;edgeStyle=elbowEdgeStyle;startArrow=none;endArrow=block;endFill=1;lucidId=P__nck6mVBAa;" parent="1" edge="1">
          <mxGeometry width="100" height="100" relative="1" as="geometry">
            <Array as="points">
              <mxPoint x="2550" y="440" />
            </Array>
            <mxPoint x="2380" y="250" as="sourcePoint" />
            <mxPoint x="2230" y="659" as="targetPoint" />
          </mxGeometry>
        </mxCell>
        <mxCell id="uLa3YSmyuf6-ixNmp2Hf-26" value="" style="html=1;jettySize=18;whiteSpace=wrap;fontSize=13;strokeOpacity=100;strokeWidth=3;rounded=1;arcSize=12;edgeStyle=orthogonalEdgeStyle;startArrow=none;endArrow=block;endFill=1;lucidId=_~_nXb6O8xkQ;" parent="1" edge="1">
          <mxGeometry width="100" height="100" relative="1" as="geometry">
            <Array as="points" />
            <mxPoint x="2080" y="661" as="sourcePoint" />
            <mxPoint x="1450" y="660" as="targetPoint" />
          </mxGeometry>
        </mxCell>
        <mxCell id="uLa3YSmyuf6-ixNmp2Hf-27" value="" style="html=1;jettySize=18;whiteSpace=wrap;fontSize=13;strokeOpacity=100;strokeWidth=3;rounded=1;arcSize=12;edgeStyle=orthogonalEdgeStyle;startArrow=none;endArrow=block;endFill=1;lucidId=ha.nzfznojWz;" parent="1" edge="1">
          <mxGeometry width="100" height="100" relative="1" as="geometry">
            <Array as="points" />
            <mxPoint x="1260" y="658" as="sourcePoint" />
            <mxPoint x="690" y="658" as="targetPoint" />
          </mxGeometry>
        </mxCell>
        <mxCell id="uLa3YSmyuf6-ixNmp2Hf-30" value="" style="html=1;jettySize=18;whiteSpace=wrap;fontSize=13;strokeOpacity=100;strokeWidth=3;rounded=1;arcSize=12;startArrow=none;endArrow=block;endFill=1;exitX=1;exitY=0.5;lucidId=Cb.nTFyvcLu6;exitDx=0;exitDy=0;" parent="1" source="uLa3YSmyuf6-ixNmp2Hf-20" edge="1">
          <mxGeometry width="100" height="100" relative="1" as="geometry">
            <mxPoint x="2030" y="1149" as="targetPoint" />
          </mxGeometry>
        </mxCell>
        <mxCell id="4fh0Ms_fV5VYOMW13M3N-1" value="Resubmit?" style="html=1;overflow=block;blockSpacing=1;whiteSpace=wrap;fontSize=20;spacing=9;verticalAlign=middle;strokeColor=#000000;rounded=1;absoluteArcSize=1;arcSize=9;fillColor=default;strokeWidth=NaN;lucidId=U0_nzfAXelq3;" parent="1" vertex="1">
          <mxGeometry x="503.0688852988693" y="1277.195" width="162.41249326871298" height="78.12499999999999" as="geometry" />
        </mxCell>
        <mxCell id="4fh0Ms_fV5VYOMW13M3N-5" style="edgeStyle=orthogonalEdgeStyle;rounded=0;orthogonalLoop=1;jettySize=auto;html=1;exitX=0;exitY=0.5;exitDx=0;exitDy=0;strokeWidth=3;" parent="1" source="4fh0Ms_fV5VYOMW13M3N-2" edge="1">
          <mxGeometry relative="1" as="geometry">
            <Array as="points">
              <mxPoint x="270" y="1153" />
              <mxPoint x="270" y="658" />
            </Array>
            <mxPoint x="500" y="658" as="targetPoint" />
          </mxGeometry>
        </mxCell>
        <mxCell id="4fh0Ms_fV5VYOMW13M3N-2" value="" style="rhombus;whiteSpace=wrap;html=1;strokeWidth=3;" parent="1" vertex="1">
          <mxGeometry x="479.64732364028" y="1047.3760416666664" width="203.0156165858912" height="210.28645833333331" as="geometry" />
        </mxCell>
        <mxCell id="AE_igfP6iT5ziy18r5x5-12" value="" style="html=1;jettySize=18;whiteSpace=wrap;fontSize=13;strokeOpacity=100;strokeWidth=3;rounded=1;arcSize=12;startArrow=none;endArrow=block;endFill=1;lucidId=ha.nzfznojWz;exitX=1;exitY=0.5;exitDx=0;exitDy=0;entryX=0;entryY=0.5;entryDx=0;entryDy=0;" edge="1" parent="1" source="4fh0Ms_fV5VYOMW13M3N-2" target="uLa3YSmyuf6-ixNmp2Hf-20">
          <mxGeometry width="100" height="100" relative="1" as="geometry">
            <mxPoint x="1640" y="1160" as="sourcePoint" />
            <mxPoint x="1420" y="1090" as="targetPoint" />
          </mxGeometry>
        </mxCell>
        <mxCell id="4fh0Ms_fV5VYOMW13M3N-8" value="No" style="html=1;overflow=block;blockSpacing=1;whiteSpace=wrap;fontSize=16;spacing=9;verticalAlign=middle;strokeColor=#000000;rounded=1;absoluteArcSize=1;arcSize=9;fillColor=default;strokeWidth=NaN;lucidId=U0_nzfAXelq3;" parent="1" vertex="1">
          <mxGeometry x="712.3311362412493" y="1130.3841666666665" width="49.97307485191167" height="50.13020833333333" as="geometry" />
        </mxCell>
        <mxCell id="4fh0Ms_fV5VYOMW13M3N-7" value="Yes" style="html=1;overflow=block;blockSpacing=1;whiteSpace=wrap;fontSize=16;spacing=9;verticalAlign=middle;strokeColor=#000000;rounded=1;absoluteArcSize=1;arcSize=9;fillColor=default;strokeWidth=NaN;lucidId=U0_nzfAXelq3;" parent="1" vertex="1">
          <mxGeometry x="399.9994184168012" y="1128.7565625" width="67.1513193322563" height="50.13020833333333" as="geometry" />
        </mxCell>
        <mxCell id="AE_igfP6iT5ziy18r5x5-7" value="" style="html=1;jettySize=18;whiteSpace=wrap;fontSize=13;strokeOpacity=100;strokeWidth=3;rounded=1;arcSize=12;edgeStyle=orthogonalEdgeStyle;startArrow=none;endArrow=block;endFill=1;lucidId=ha.nzfznojWz;" edge="1" parent="1">
          <mxGeometry width="100" height="100" relative="1" as="geometry">
            <Array as="points" />
            <mxPoint x="581" y="880" as="sourcePoint" />
            <mxPoint x="581" y="1040" as="targetPoint" />
          </mxGeometry>
        </mxCell>
      </root>
    </mxGraphModel>
  </diagram>
</mxfile>
